# xmcd
#
# Track frame offsets: 
#        150
#        18697
#        38521
#        57012
#
# Disc length: 1021 seconds
#
# Revision: 0
# Processed by: cddbd v1.5.2PL0 Copyright (c) Steve Scherf et al.
# Submitted via: ExactAudioCopy v1.0b3
#
DISCID=2703fb04
DTITLE=Kae - 衝撃ゴウライガン～光人の誓い～
DYEAR=2013
DGENRE=Anime
TTITLE0=衝撃ゴウライガン~光人の誓い~
TTITLE1=すべて忘れる日
TTITLE2=衝撃ゴウライガン~光人の誓い~ (instrumental)
TTITLE3=すべて忘れる日 (instrumental)
EXTD=
EXTT0=
EXTT1=
EXTT2=
EXTT3=
PLAYORDER=
